<?xml version="1.0" encoding="utf-8"?>
<!-- Generator: Adobe Illustrator 23.0.5, SVG Export Plug-In . SVG Version: 6.00 Build 0)  -->
<svg version="1.1" id="Layer_1" xmlns="http://www.w3.org/2000/svg" xmlns:xlink="http://www.w3.org/1999/xlink" x="0px" y="0px"
	 viewBox="0 0 4500 4500" style="enable-background:new 0 0 4500 4500;" xml:space="preserve">
<style type="text/css">
	.st0{opacity:0.82;}
	.st1{fill:#00AEEF;}
</style>
<g class="st0">
	<path class="st1" d="M1436.37,1983.3c0,0-22.02,57.13-13.78,127.57c0,0,0.08-0.08,0.28-0.2c5.45,79.41,46.7,192.72,236.3,196.77
		c76.6,1.64,174.97,3.56,278.47,5.53c9.05,0.16,13.94,10.85,8.2,17.94l-470.25,583.07c-2.06,2.58-5.17,4.05-8.4,4.05h-72.36
		l163.94-182.64h-39.03l-163.94,182.64h-70.98l163.94-182.64h-39.03l-163.94,182.64h-74.09l378.58-431.8l-46.18-11.47
		c-38.94-10.85-74.62-26.17-107.1-45.91c-42.54-25.92-78.62-57.41-108.11-94.64c-29.49-37.18-52.07-79.04-67.83-125.52
		c-15.72-46.52-23.55-95.66-23.55-147.47c0-95.62,21.29-174,63.87-235.14c42.58-61.06,96.64-109.55,162.16-145.42
		c65.53-35.87,138.25-60.77,218.2-74.7c79.91-13.97,157.23-20.93,231.97-20.93h356.85v203.33l-377.86,1.84h-0.61
		c-11.35-0.66-352.33-18.22-415.47,193.33C1436.45,1983.38,1436.37,1983.3,1436.37,1983.3z"/>
	<rect x="2278.06" y="1581.97" class="st1" width="28.84" height="1332.98"/>
	<rect x="2348.19" y="1581.97" class="st1" width="35.07" height="1332.98"/>
	<rect x="2424.51" y="1581.97" class="st1" width="37.61" height="1332.98"/>
	<polygon class="st1" points="3328.28,1581.97 3328.28,2914.95 3269.18,2914.95 3268.01,2735.05 3239.12,2735.05 3240.29,2914.95 
		3187.77,2914.95 3186.6,2735.05 3157.72,2735.05 3158.89,2914.95 3099.22,2914.95 3099.22,2400.89 3098.94,2400.89 
		3098.94,2315.95 2506.68,2315.95 2506.68,2124.63 3098.94,2124.63 3098.94,2054.19 3099.22,2054.19 3099.22,1581.97 	"/>
</g>
</svg>
